HIERARCHY
ROOT hip
{
  OFFSET 0 0 0
  CHANNELS 6 Xposition Yposition Zposition Zrotation Yrotation Xrotation
  JOINT abdomen
  {
    OFFSET 0 20.6881 -0.73152
    CHANNELS 3 Zrotation Xrotation Yrotation
    JOINT chest
    {
      OFFSET 0 11.7043 -0.48768
      CHANNELS 3 Zrotation Xrotation Yrotation
      JOINT neck
      {
        OFFSET 0 22.1894 -2.19456
        CHANNELS 3 Zrotation Xrotation Yrotation
        JOINT head
        {
          OFFSET -0.24384 7.07133 1.2192
          CHANNELS 3 Zrotation Xrotation Yrotation
          JOINT leftEye
          {
            OFFSET 4.14528 8.04674 8.04672
            CHANNELS 3 Zrotation Xrotation Yrotation
            End Site
            {
              OFFSET 1 0 0
            }
          }
          JOINT rightEye
          {
            OFFSET -3.6576 8.04674 8.04672
            CHANNELS 3 Zrotation Xrotation Yrotation
            End Site
            {
              OFFSET 1 0 0
            }
          }
        }
      }
      JOINT rCollar
      {
        OFFSET -2.68224 19.2634 -4.8768
        CHANNELS 3 Zrotation Xrotation Yrotation
        JOINT rShldr
        {
          OFFSET -8.77824 -1.95073 1.46304
          CHANNELS 3 Zrotation Xrotation Yrotation
          JOINT rForeArm
          {
            OFFSET -28.1742 -1.7115 0.48768
            CHANNELS 3 Zrotation Xrotation Yrotation
            JOINT rHand
            {
              OFFSET -22.5879 0.773209 7.07136
              CHANNELS 3 Zrotation Xrotation Yrotation
              JOINT rThumb1
              {
                OFFSET -1.2192 -0.487915 3.41376
                CHANNELS 3 Zrotation Xrotation Yrotation
                JOINT rThumb2
                {
                  OFFSET -3.37035 -0.52449 3.41376
                  CHANNELS 3 Zrotation Xrotation Yrotation
                  End Site
                  {
                    OFFSET -1.78271 -1.18214 1.43049
                  }
                }
              }
              JOINT rIndex1
              {
                OFFSET -7.75947 0.938293 5.60832
                CHANNELS 3 Zrotation Xrotation Yrotation
                JOINT rIndex2
                {
                  OFFSET -2.54057 -0.884171 1.56538
                  CHANNELS 3 Zrotation Xrotation Yrotation
                  End Site
                  {
                    OFFSET -1.62519 -0.234802 1.16502
                  }
                }
              }
              JOINT rMid1
              {
                OFFSET -8.24714 1.18213 3.41376
                CHANNELS 3 Zrotation Xrotation Yrotation
                JOINT rMid2
                {
                  OFFSET -3.10165 -0.590103 1.0647
                  CHANNELS 3 Zrotation Xrotation Yrotation
                  End Site
                  {
                    OFFSET -2.48547 -0.328903 0.83742
                  }
                }
              }
              JOINT rRing1
              {
                OFFSET -8.82822 0.546677 1.51678
                CHANNELS 3 Zrotation Xrotation Yrotation
                JOINT rRing2
                {
                  OFFSET -2.60934 -0.819778 -0.0198488
                  CHANNELS 3 Zrotation Xrotation Yrotation
                  End Site
                  {
                    OFFSET -2.33842 -0.294052 0.168128
                  }
                }
              }
              JOINT rPinky1
              {
                OFFSET -8.27202 -0.0477905 -0.4584
                CHANNELS 3 Zrotation Xrotation Yrotation
                JOINT rPinky2
                {
                  OFFSET -1.82734 -0.647385 -0.700984
                  CHANNELS 3 Zrotation Xrotation Yrotation
                  End Site
                  {
                    OFFSET -1.69225 -0.51767 -0.607171
                  }
                }
              }
            }
          }
        }
      }
      JOINT lCollar
      {
        OFFSET 2.68224 19.2634 -4.8768
        CHANNELS 3 Zrotation Xrotation Yrotation
        JOINT lShldr
        {
          OFFSET 8.77824 -1.95073 1.46304
          CHANNELS 3 Zrotation Xrotation Yrotation
          JOINT lForeArm
          {
            OFFSET 28.1742 -1.7115 0.48768
            CHANNELS 3 Zrotation Xrotation Yrotation
            JOINT lHand
            {
              OFFSET 22.5879 0.773209 7.07136
              CHANNELS 3 Zrotation Xrotation Yrotation
              JOINT lThumb1
              {
                OFFSET 1.2192 -0.487915 3.41376
                CHANNELS 3 Zrotation Xrotation Yrotation
                JOINT lThumb2
                {
                  OFFSET 3.37035 -0.52449 3.41376
                  CHANNELS 3 Zrotation Xrotation Yrotation
                  End Site
                  {
                    OFFSET 1.78271 -1.18214 1.43049
                  }
                }
              }
              JOINT lIndex1
              {
                OFFSET 7.75947 0.938293 5.60832
                CHANNELS 3 Zrotation Xrotation Yrotation
                JOINT lIndex2
                {
                  OFFSET 2.54057 -0.884171 1.56538
                  CHANNELS 3 Zrotation Xrotation Yrotation
                  End Site
                  {
                    OFFSET 1.62519 -0.234802 1.16502
                  }
                }
              }
              JOINT lMid1
              {
                OFFSET 8.24714 1.18213 3.41376
                CHANNELS 3 Zrotation Xrotation Yrotation
                JOINT lMid2
                {
                  OFFSET 3.10165 -0.590103 1.0647
                  CHANNELS 3 Zrotation Xrotation Yrotation
                  End Site
                  {
                    OFFSET 2.48547 -0.328903 0.83742
                  }
                }
              }
              JOINT lRing1
              {
                OFFSET 8.82822 0.546677 1.51678
                CHANNELS 3 Zrotation Xrotation Yrotation
                JOINT lRing2
                {
                  OFFSET 2.60934 -0.819778 -0.0198488
                  CHANNELS 3 Zrotation Xrotation Yrotation
                  End Site
                  {
                    OFFSET 2.33842 -0.294052 0.168128
                  }
                }
              }
              JOINT lPinky1
              {
                OFFSET 8.27202 -0.0477905 -0.4584
                CHANNELS 3 Zrotation Xrotation Yrotation
                JOINT lPinky2
                {
                  OFFSET 1.82734 -0.647385 -0.700984
                  CHANNELS 3 Zrotation Xrotation Yrotation
                  End Site
                  {
                    OFFSET 1.69225 -0.51767 -0.607171
                  }
                }
              }
            }
          }
        }
      }
    }
  }
  JOINT rButtock
  {
    OFFSET -8.77824 4.35084 1.2192
    CHANNELS 3 Zrotation Xrotation Yrotation
    JOINT rThigh
    {
      OFFSET 0 -1.70687 -2.19456
      CHANNELS 3 Zrotation Xrotation Yrotation
      JOINT rShin
      {
        OFFSET 0 -36.8199 0.73152
        CHANNELS 3 Zrotation Xrotation Yrotation
        JOINT rFoot
        {
          OFFSET 0.73152 -45.1104 -5.12064
          CHANNELS 3 Zrotation Xrotation Yrotation
          End Site
          {
            OFFSET -1.1221 -3.69964 12.103
          }
        }
      }
    }
  }
  JOINT lButtock
  {
    OFFSET 8.77824 4.35084 1.2192
    CHANNELS 3 Zrotation Xrotation Yrotation
    JOINT lThigh
    {
      OFFSET 0 -1.70687 -2.19456
      CHANNELS 3 Zrotation Xrotation Yrotation
      JOINT lShin
      {
        OFFSET 0 -36.8199 0.73152
        CHANNELS 3 Zrotation Xrotation Yrotation
        JOINT lFoot
        {
          OFFSET -0.73152 -45.1104 -5.12064
          CHANNELS 3 Zrotation Xrotation Yrotation
          End Site
          {
            OFFSET 1.1221 -3.69964 12.103
          }
        }
      }
    }
  }
}
MOTION
Frames:	7
Frame Time:	0.00833333
0.0 0.0 0.0 0.0 0.0 0.0 0.0 0.0 0.0 0.0 0.0 0.0 0.0 0.0 0.0 0.0 0.0 0.0 0.0 0.0 0.0 0.0 0.0 0.0 0.0 0.0 0.0 0.0 0.0 0.0 0.0 0.0 0.0 0.0 0.0 0.0 0.0 0.0 0.0 0.0 0.0 0.0 0.0 0.0 0.0 0.0 0.0 0.0 0.0 0.0 0.0 0.0 0.0 0.0 0.0 0.0 0.0 0.0 0.0 0.0 0.0 0.0 0.0 0.0 0.0 0.0 0.0 0.0 0.0 0.0 0.0 0.0 0.0 0.0 0.0 0.0 0.0 0.0 0.0 0.0 0.0 0.0 0.0 0.0 0.0 0.0 0.0 0.0 0.0 0.0 0.0 0.0 0.0 0.0 0.0 0.0 0.0 0.0 0.0 0.0 0.0 0.0 0.0 0.0 0.0 0.0 0.0 0.0 0.0 0.0 0.0 0.0 0.0 0.0 0.0 0.0 0.0 0.0 0.0 0.0 0.0 0.0 0.0 0.0 0.0 0.0 0.0 0.0 0.0 0.0 0.0 0.0
0.3156 60.102 -0.42050000000000004 -153.507055 57.01593 -164.804508 11.770604 17.085005 70.849947 -5.165591 -4.651333 -51.439683 10.620088 24.228135 104.919121 -29.063886 13.03392 -98.649343 0.003489 -0.0 -0.003119 -0.002191 0.0 -0.002701 -13.574402 42.162716 15.390718 -74.175909 40.809574 129.138988 140.805809 -16.939781 -152.686424 -56.320228 75.297523 41.121443 -0.440846 0.435565 0.069827 -129.287923 -25.517905 114.51441 -93.641345 40.183279 78.833396 -90.09767 52.458524 66.493351 -166.119984 -24.039715 145.077106 2.593928 1.623158 0.575382 -145.10062 -1.521454 -178.650864 -148.008776 -42.994851 -170.619882 -26.56481 -38.861529 -25.604093 15.877564 42.781106 8.16357 82.877146 68.300385 -86.000692 178.884176 0.198245 -107.281655 128.770509 -2.960082 -156.180278 -36.11524 -57.035805 -25.16173 170.214563 -7.896971 -89.943786 -171.785453 -23.685489 -96.092211 -60.461589 -70.523678 -15.710907 -8.868169 12.877799 2.730821 167.297581 -27.767564 -145.260558 150.763167 26.64048 -136.132019 145.107149 3.677262 -179.714433 157.607686 45.313507 -175.540176 24.988986 -37.65817 24.063156 -6.169078 8.702556 -2.145614 0.000217 -0.000644 -0.000279 -11.723569 5.892213 63.678917 44.906892 19.64591 -112.735376 149.954012 -9.052181 -0.720571 0.007838 -0.000211 0.007838 62.606277 -46.150417 55.187787 -10.237171 76.425117 -87.418613 3.56342 29.019372 84.429781
0.44860000000000005 60.07209999999999 -0.6011 -153.580944 56.836446 -164.891576 14.425167 18.768454 -4.151595 0.743503 -7.99073 23.085342 -0.922651 33.217505 -164.812437 5.166951 40.378425 168.004997 0.004593 0.0 0.003846 -0.001087 -0.0 0.004267 2.530273 -18.881211 -3.793707 -111.130141 -15.343801 -160.820187 6.674603 8.717159 -84.04963 160.678966 -31.094852 141.100392 -68.481744 37.953405 35.660456 -146.914071 -34.041048 85.801298 10.74868 -19.04754 -4.725272 -64.424718 49.01869 51.311718 -10.976872 25.7894 7.641727 80.589255 -77.978274 52.030781 0.005312 1.77204 0.558617 9.647372 6.855025 0.825097 -144.159359 8.940418 -140.921702 -140.899702 -5.475909 -136.720775 9.651619 34.836145 -11.199445 -69.740543 0.237897 -43.532318 -177.482796 7.248564 -112.75917 -164.876059 -24.38899 -142.973203 78.031036 38.689855 -42.412187 -173.671692 -48.147988 -75.323594 -159.644372 -69.973922 -102.399284 137.082306 19.979526 -111.692256 86.294609 60.961243 -77.857634 -173.185971 -58.956533 -136.797484 0.015462 -1.322872 0.417679 156.404368 -41.064257 -176.787364 -17.604468 61.627556 -12.869844 84.744965 -53.520858 83.317066 179.988207 75.748996 0.008069 123.694696 77.176456 55.420251 -1.469192 54.420291 -108.205183 62.790464 50.934962 42.920383 -0.003972 0.000645 -0.001986 62.922327 -46.090381 55.533456 -10.821596 79.565121 -111.377647 -38.516294 63.326769 123.539715
0.5513 59.9706 -0.766 -153.58641 56.723271 -164.996428 11.850088 16.192603 99.086271 -5.699022 -1.853952 -79.722533 9.468811 18.842654 73.487113 -26.236758 -2.925811 -71.037585 -0.001972 0.0 -0.002043 -0.002943 0.0 -0.003302 -152.1286 14.113417 157.55741 -55.132531 15.868488 31.313705 11.198123 -8.629646 -82.635507 163.020825 -26.586033 142.564915 93.028191 -51.084614 40.501219 -16.192421 -44.231906 -30.199168 60.464482 -70.52239 15.713697 179.093385 -47.442695 106.30838 -160.097514 -4.901493 142.968099 -166.211833 -13.661741 143.665688 -70.380994 -72.13041 -87.279809 11.934672 46.261401 2.819345 -144.261805 9.236199 -141.011955 -148.100274 13.460777 -142.104401 9.652819 34.835931 -11.200051 -117.846878 -38.52655 -57.595051 76.011771 57.557825 -98.9994 -5.562029 -8.620439 -2.785483 -113.26188 -50.398088 -54.830164 163.57258 -17.518881 -119.973302 0.325873 0.530267 -0.186879 86.489479 47.21359 -67.728768 -68.983452 -80.154179 -40.577652 170.377045 -25.694984 -144.104965 -0.000783 -0.018289 0.007586 23.395605 72.953535 -36.424826 26.56656 -38.859568 25.607774 40.721753 -50.117253 41.799845 0.000377 -0.001574 -0.0 -10.665875 7.175408 0.0 12.293485 56.783526 154.035974 106.580916 -3.232552 173.187594 -0.004224 0.001273 -0.004224 64.583457 -47.793477 -180.0 82.738244 -41.105508 40.195197 104.660444 62.918342 169.577001
0.6545 59.8793 -0.9708 -153.775177 56.684965 -165.140642 15.919214 18.498709 -41.953785 4.077338 -6.506896 60.690939 -8.402689 17.032501 -38.816728 26.04995 -9.833061 45.786068 0.003113 0.0 0.002316 -0.003284 0.0 -0.001872 -153.588104 -75.693156 -178.257872 -63.191609 -38.751273 -58.505092 -174.585774 -6.3561 -130.686746 -7.75515 33.748501 2.394816 -0.490467 0.485132 0.077644 -126.023903 -19.827534 112.415598 -129.576037 16.76043 108.785117 103.415367 -69.667644 52.628692 -160.672195 -6.667929 143.245487 -4.865022 20.733279 4.658362 -145.099558 -1.521259 -178.650475 12.255256 40.319518 -4.410018 -1.20318 -3.047792 -1.115 -19.951186 -37.802522 -20.840737 155.503944 -3.514678 -161.838119 -172.004845 -79.564463 138.376396 -142.224632 80.603422 -154.680027 -164.379065 -24.286862 -143.132564 93.743846 37.963512 -53.548339 96.902557 -6.686218 -65.852444 -5.363407 -9.171808 2.722442 159.651721 -12.604643 -110.329501 -1.280565 -3.803122 0.681204 -2.659907 1.649253 -0.200527 145.118555 0.267679 179.212613 71.285119 -78.001907 92.776903 157.329804 57.246393 150.511955 147.987843 10.795763 141.810447 0.001866 9.5e-05 0.000933 -9.588247 5.91961 -103.349135 -46.455046 -9.973738 74.517031 -86.712143 -8.273164 0.575994 0.0 0.001537 -0.001805 63.412636 -47.179334 122.87635 77.961914 12.230674 -8.235524 -137.280824 36.537823 55.567097
0.7259 59.7765 -1.1731 -154.168945 56.881612 -165.48748 13.966742 19.189982 0.0 0.280013 -8.193517 19.124383 -10.835594 25.668997 -89.572848 33.426296 15.450023 90.905633 -0.002112 0.0 -0.00033 -0.001862 0.0 -0.003699 -157.846262 -65.8036 175.513138 -40.47792 -17.722585 -37.196197 113.04987 27.161654 -97.794366 -134.18719 73.447486 114.788792 -68.482877 37.95366 35.659346 -17.597124 -3.465254 31.734763 -100.825002 37.734523 85.162024 -169.43378 -19.566318 115.454788 -10.976424 25.789769 7.640166 -171.992995 -31.36092 144.080475 -0.00935 -0.872193 -0.274818 11.619509 -29.445653 -3.528624 -145.174761 12.066541 -141.824534 -21.363539 -36.807273 -22.932613 28.702359 57.498721 -31.080153 -103.814833 -21.436487 -73.885428 171.110374 -10.417799 -114.674819 -155.364178 -40.357543 -136.94514 171.603981 -9.286048 -89.949652 -169.117461 -26.317155 -97.633611 152.463753 -19.226947 -121.472705 62.019773 57.381317 -46.122288 89.834731 60.700808 -81.262759 163.149182 -4.994558 -143.180023 145.120126 0.309826 179.226279 -11.936674 52.756247 2.721225 161.702358 70.564078 151.028855 -178.273712 78.681888 136.467262 -0.0 0.000686 0.000237 -10.943436 5.129534 180.0 4.163405 -51.651928 119.726956 -97.847841 -46.651741 -4.587877 -179.979165 75.749402 -0.014255 -142.188149 5.916405 97.566293 80.123631 -9.059069 164.910824 -0.221031 63.838312 82.271822
0.8066 59.6878 -1.3721 -154.646547 57.069551 -165.845883 13.654522 14.489123 -180.0 -0.234862 3.450264 -160.708124 7.073655 16.344262 53.678834 -20.734695 -12.03107 -52.825708 -0.004731 -0.0 0.000269 0.0007 0.0 0.003211 -14.148302 43.061343 15.997531 -57.743736 47.472875 116.793484 169.942929 -52.718579 -141.164745 -11.830571 43.115804 4.035385 -89.135921 38.426729 50.299264 26.808925 -30.125108 22.074598 -108.427409 34.16025 91.742453 18.618602 -21.989135 -7.166576 6.532765 -20.41498 -2.718149 -54.397617 61.99499 47.637735 -69.841096 -72.121962 -86.715085 13.860405 29.739653 -0.461543 -25.537365 -38.087809 -24.597917 -7.225355 -22.469304 -9.586408 9.651988 34.836219 -11.198875 107.448306 -7.477166 -133.65208 83.395621 -45.668824 114.537789 -37.108883 -55.799281 -26.95161 -5.512426 -5.500038 0.587443 -33.171294 -64.317861 22.236215 162.918262 -37.929458 -122.629861 -12.693541 1.395034 9.463396 170.281044 -36.723291 -145.34064 42.546983 58.283097 -36.538286 145.111304 -0.627658 178.932209 156.815738 22.885087 -178.148427 163.637915 74.574327 150.519269 -0.469215 -2.411591 2.158872 0.000362 -2e-05 0.000362 -10.501641 5.454446 -140.088511 -43.377759 -42.219792 5.870784 35.169018 31.158495 76.732709 179.999141 75.749662 0.000588 -141.964203 6.202417 86.362297 86.389943 -4.21884 80.890275 17.951578 16.666378 -174.624915
